<svg width="1440" height="1142" viewBox="0 0 1440 1142" fill="none" xmlns="http://www.w3.org/2000/svg">
<g clip-path="url(#clip0_2963_1284)">
<g filter="url(#filter0_f_2963_1284)">
<circle cx="720" cy="-6" r="519" stroke="url(#paint0_linear_2963_1284)" stroke-opacity="0.85" stroke-width="70"/>
</g>
<mask id="mask0_2963_1284" style="mask-type:alpha" maskUnits="userSpaceOnUse" x="202" y="-524" width="1036" height="1036">
<circle cx="720" cy="-6" r="501" stroke="url(#paint1_linear_2963_1284)" stroke-width="34"/>
</mask>
<g mask="url(#mask0_2963_1284)">
<g filter="url(#filter1_f_2963_1284)">
<circle cx="236" cy="-6" r="256" fill="white"/>
</g>
</g>
<g opacity="0.32" filter="url(#filter2_f_2963_1284)">
<circle cx="725" cy="-50" r="173" fill="#2937F4"/>
</g>
<g filter="url(#filter3_f_2963_1284)">
<circle cx="1384" cy="366" r="173" fill="#2937F4" fill-opacity="0.51"/>
</g>
<g filter="url(#filter4_f_2963_1284)">
<circle cx="54" cy="342" r="173" fill="#2937F4" fill-opacity="0.51"/>
</g>
<g filter="url(#filter5_f_2963_1284)">
<ellipse cx="639" cy="625" rx="677" ry="173" fill="#2937F4" fill-opacity="0.34"/>
</g>
<g opacity="0.32">
<circle cx="1.5" cy="1.5" r="1.5" transform="matrix(1 0 0 -1 637 6)" fill="#1D269D"/>
<circle cx="1.5" cy="1.5" r="1.5" transform="matrix(1 0 0 -1 621 14)" fill="#1D269D"/>
<circle cx="1.5" cy="1.5" r="1.5" transform="matrix(1 0 0 -1 629 22)" fill="#1D269D"/>
<circle cx="1.5" cy="1.5" r="1.5" transform="matrix(1 0 0 -1 621 38)" fill="#1D269D"/>
<circle cx="1.5" cy="1.5" r="1.5" transform="matrix(1 0 0 -1 629 38)" fill="#1D269D"/>
<circle cx="1.5" cy="1.5" r="1.5" transform="matrix(1 0 0 -1 629 47)" fill="#1D269D"/>
<circle cx="1.5" cy="1.5" r="1.5" transform="matrix(1 0 0 -1 630 55)" fill="#1D269D"/>
<circle cx="1.5" cy="1.5" r="1.5" transform="matrix(1 0 0 -1 646 46)" fill="#1D269D"/>
<circle cx="1.5" cy="1.5" r="1.5" transform="matrix(1 0 0 -1 661 54)" fill="#1D269D"/>
<circle cx="1.5" cy="1.5" r="1.5" transform="matrix(1 0 0 -1 670 46)" fill="#1D269D"/>
<circle cx="1.5" cy="1.5" r="1.5" transform="matrix(1 0 0 -1 670 37)" fill="#1D269D"/>
<circle cx="1.5" cy="1.5" r="1.5" transform="matrix(1 0 0 -1 662 30)" fill="#1D269D"/>
<circle cx="1.5" cy="1.5" r="1.5" transform="matrix(1 0 0 -1 662 22)" fill="#1D269D"/>
<circle cx="1.5" cy="1.5" r="1.5" transform="matrix(1 0 0 -1 662 14)" fill="#1D269D"/>
<circle cx="1.5" cy="1.5" r="1.5" transform="matrix(1 0 0 -1 678 38)" fill="#1D269D"/>
<circle cx="1.5" cy="1.5" r="1.5" transform="matrix(1 0 0 -1 686 38)" fill="#1D269D"/>
<circle cx="1.5" cy="1.5" r="1.5" transform="matrix(1 0 0 -1 720 55)" fill="#1D269D"/>
<circle cx="1.5" cy="1.5" r="1.5" transform="matrix(1 0 0 -1 729 46)" fill="#1D269D"/>
<circle cx="1.5" cy="1.5" r="1.5" transform="matrix(1 0 0 -1 737 46)" fill="#1D269D"/>
<circle cx="1.5" cy="1.5" r="1.5" transform="matrix(1 0 0 -1 752 38)" fill="#1D269D"/>
<circle cx="1.5" cy="1.5" r="1.5" transform="matrix(1 0 0 -1 760 38)" fill="#1D269D"/>
<circle cx="1.5" cy="1.5" r="1.5" transform="matrix(1 0 0 -1 760 30)" fill="#1D269D"/>
<circle cx="1.5" cy="1.5" r="1.5" transform="matrix(1 0 0 -1 768 22)" fill="#1D269D"/>
<circle cx="1.5" cy="1.5" r="1.5" transform="matrix(1 0 0 -1 777 22)" fill="#1D269D"/>
<circle cx="1.5" cy="1.5" r="1.5" transform="matrix(1 0 0 -1 776 14)" fill="#1D269D"/>
<circle cx="1.5" cy="1.5" r="1.5" transform="matrix(1 0 0 -1 776 7)" fill="#1D269D"/>
<circle cx="1.5" cy="1.5" r="1.5" transform="matrix(1 0 0 -1 784 7)" fill="#1D269D"/>
<circle cx="1.5" cy="1.5" r="1.5" transform="matrix(1 0 0 -1 793 6)" fill="#1D269D"/>
<circle cx="1.5" cy="1.5" r="1.5" transform="matrix(1 0 0 -1 801 6)" fill="#1D269D"/>
<circle cx="1.5" cy="1.5" r="1.5" transform="matrix(1 0 0 -1 809 14)" fill="#1D269D"/>
<circle cx="1.5" cy="1.5" r="1.5" transform="matrix(1 0 0 -1 809 30)" fill="#1D269D"/>
<circle cx="1.5" cy="1.5" r="1.5" transform="matrix(1 0 0 -1 808 38)" fill="#1D269D"/>
<circle cx="1.5" cy="1.5" r="1.5" transform="matrix(1 0 0 -1 816 14)" fill="#1D269D"/>
<circle cx="1.5" cy="1.5" r="1.5" transform="matrix(1 0 0 -1 816 6)" fill="#1D269D"/>
<circle cx="1.5" cy="1.5" r="1.5" transform="matrix(1 0 0 -1 848 6)" fill="#1D269D"/>
<circle cx="1.5" cy="1.5" r="1.5" transform="matrix(1 0 0 -1 873 14)" fill="#1D269D"/>
<circle cx="1.5" cy="1.5" r="1.5" transform="matrix(1 0 0 -1 784 22)" fill="#1D269D"/>
<circle cx="1.5" cy="1.5" r="1.5" transform="matrix(1 0 0 -1 793 31)" fill="#1D269D"/>
<circle cx="1.5" cy="1.5" r="1.5" transform="matrix(1 0 0 -1 784 38)" fill="#1D269D"/>
<circle cx="1.5" cy="1.5" r="1.5" transform="matrix(1 0 0 -1 768 55)" fill="#1D269D"/>
<circle cx="1.5" cy="1.5" r="1.5" transform="matrix(1 0 0 -1 760 62)" fill="#1D269D"/>
<circle cx="1.5" cy="1.5" r="1.5" transform="matrix(1 0 0 -1 777 46)" fill="#B5BAFF"/>
<circle cx="1.5" cy="1.5" r="1.5" transform="matrix(1 0 0 -1 736 54)" fill="#1D269D"/>
<circle cx="1.5" cy="1.5" r="1.5" transform="matrix(1 0 0 -1 736 63)" fill="#1D269D"/>
<circle cx="1.5" cy="1.5" r="1.5" transform="matrix(1 0 0 -1 736 70)" fill="#1D269D"/>
<circle cx="1.5" cy="1.5" r="1.5" transform="matrix(1 0 0 -1 745 79)" fill="#1D269D"/>
<circle cx="1.5" cy="1.5" r="1.5" transform="matrix(1 0 0 -1 720 86)" fill="#1D269D"/>
<circle cx="1.5" cy="1.5" r="1.5" transform="matrix(1 0 0 -1 752 78)" fill="#1D269D"/>
<circle cx="1.5" cy="1.5" r="1.5" transform="matrix(1 0 0 -1 744 87)" fill="#B5BAFF"/>
<circle cx="1.5" cy="1.5" r="1.5" transform="matrix(1 0 0 -1 760 87)" fill="#1D269D"/>
<circle cx="1.5" cy="1.5" r="1.5" transform="matrix(1 0 0 -1 752 87)" fill="#1D269D"/>
<circle cx="1.5" cy="1.5" r="1.5" transform="matrix(1 0 0 -1 767 79)" fill="#1D269D"/>
<circle cx="1.5" cy="1.5" r="1.5" transform="matrix(1 0 0 -1 693 38)" fill="#B5BAFF"/>
<circle cx="1.5" cy="1.5" r="1.5" transform="matrix(1 0 0 -1 661 63)" fill="#1D269D"/>
<circle cx="1.5" cy="1.5" r="1.5" transform="matrix(1 0 0 -1 669 70)" fill="#1D269D"/>
<circle cx="1.5" cy="1.5" r="1.5" transform="matrix(1 0 0 -1 669 79)" fill="#1D269D"/>
<circle cx="1.5" cy="1.5" r="1.5" transform="matrix(1 0 0 -1 686 70)" fill="#1D269D"/>
<circle cx="1.5" cy="1.5" r="1.5" transform="matrix(1 0 0 -1 678 63)" fill="#B5BAFF"/>
<circle cx="1.5" cy="1.5" r="1.5" transform="matrix(1 0 0 -1 638 46)" fill="#B5BAFF"/>
<circle cx="1.5" cy="1.5" r="1.5" transform="matrix(1 0 0 -1 637 14)" fill="#1D269D"/>
<circle cx="1.5" cy="1.5" r="1.5" transform="matrix(1 0 0 -1 654 6)" fill="#1D269D"/>
<circle cx="1.5" cy="1.5" r="1.5" transform="matrix(1 0 0 -1 653 22)" fill="#1D269D"/>
<circle cx="1.5" cy="1.5" r="1.5" transform="matrix(1 0 0 -1 589 7)" fill="#1D269D"/>
<circle cx="1.5" cy="1.5" r="1.5" transform="matrix(1 0 0 -1 565 14)" fill="#1D269D"/>
</g>
</g>
<defs>
<filter id="filter0_f_2963_1284" x="40" y="-686" width="1360" height="1360" filterUnits="userSpaceOnUse" color-interpolation-filters="sRGB">
<feFlood flood-opacity="0" result="BackgroundImageFix"/>
<feBlend mode="normal" in="SourceGraphic" in2="BackgroundImageFix" result="shape"/>
<feGaussianBlur stdDeviation="63" result="effect1_foregroundBlur_2963_1284"/>
</filter>
<filter id="filter1_f_2963_1284" x="-196.9" y="-438.9" width="865.8" height="865.8" filterUnits="userSpaceOnUse" color-interpolation-filters="sRGB">
<feFlood flood-opacity="0" result="BackgroundImageFix"/>
<feBlend mode="normal" in="SourceGraphic" in2="BackgroundImageFix" result="shape"/>
<feGaussianBlur stdDeviation="88.45" result="effect1_foregroundBlur_2963_1284"/>
</filter>
<filter id="filter2_f_2963_1284" x="232" y="-543" width="986" height="986" filterUnits="userSpaceOnUse" color-interpolation-filters="sRGB">
<feFlood flood-opacity="0" result="BackgroundImageFix"/>
<feBlend mode="normal" in="SourceGraphic" in2="BackgroundImageFix" result="shape"/>
<feGaussianBlur stdDeviation="160" result="effect1_foregroundBlur_2963_1284"/>
</filter>
<filter id="filter3_f_2963_1284" x="891" y="-127" width="986" height="986" filterUnits="userSpaceOnUse" color-interpolation-filters="sRGB">
<feFlood flood-opacity="0" result="BackgroundImageFix"/>
<feBlend mode="normal" in="SourceGraphic" in2="BackgroundImageFix" result="shape"/>
<feGaussianBlur stdDeviation="160" result="effect1_foregroundBlur_2963_1284"/>
</filter>
<filter id="filter4_f_2963_1284" x="-439" y="-151" width="986" height="986" filterUnits="userSpaceOnUse" color-interpolation-filters="sRGB">
<feFlood flood-opacity="0" result="BackgroundImageFix"/>
<feBlend mode="normal" in="SourceGraphic" in2="BackgroundImageFix" result="shape"/>
<feGaussianBlur stdDeviation="160" result="effect1_foregroundBlur_2963_1284"/>
</filter>
<filter id="filter5_f_2963_1284" x="-358" y="132" width="1994" height="986" filterUnits="userSpaceOnUse" color-interpolation-filters="sRGB">
<feFlood flood-opacity="0" result="BackgroundImageFix"/>
<feBlend mode="normal" in="SourceGraphic" in2="BackgroundImageFix" result="shape"/>
<feGaussianBlur stdDeviation="160" result="effect1_foregroundBlur_2963_1284"/>
</filter>
<linearGradient id="paint0_linear_2963_1284" x1="303" y1="-142.5" x2="1204" y2="545.5" gradientUnits="userSpaceOnUse">
<stop stop-color="#2434FF"/>
<stop offset="1" stop-color="#202AB6"/>
</linearGradient>
<linearGradient id="paint1_linear_2963_1284" x1="303" y1="-142.5" x2="1204" y2="545.5" gradientUnits="userSpaceOnUse">
<stop stop-color="#2434FF"/>
<stop offset="1" stop-color="#202AB6"/>
</linearGradient>
<clipPath id="clip0_2963_1284">
<rect width="1440" height="1142" fill="white"/>
</clipPath>
</defs>
</svg>