<svg width="22" height="19" viewBox="0 0 22 19" fill="none" xmlns="http://www.w3.org/2000/svg">
<path d="M1.00654 0.0742862C0.285832 0.332099 -0.124324 1.07624 0.0338792 1.8321C0.145207 2.3653 0.58466 2.83991 1.09443 2.97468C1.23505 3.01569 4.49872 3.02741 10.6511 3.02155L19.9851 3.00397L20.2253 2.87507C20.5065 2.72272 20.8112 2.3946 20.9401 2.10163C21.0573 1.8321 21.0573 1.18757 20.9401 0.918036C20.8112 0.625067 20.5065 0.296942 20.2253 0.144599L19.9851 0.0156922L10.6101 0.00397348C2.66474 -0.00774527 1.19989 0.00397372 1.00654 0.0742862Z" fill="white"/>
<path d="M1.00654 7.57428C0.285832 7.83209 -0.124324 8.57623 0.0338792 9.33209C0.145207 9.86529 0.58466 10.3399 1.09443 10.4747C1.23505 10.5157 3.01044 10.5274 6.13935 10.5215C10.7741 10.504 10.9733 10.4981 11.1901 10.3926C11.7468 10.1172 12.0163 9.66022 12.0163 9.00983C12.0163 8.35943 11.7468 7.9024 11.1901 7.62701C10.9675 7.52154 10.78 7.51568 6.09833 7.50397C2.03193 7.49225 1.19989 7.50397 1.00654 7.57428Z" fill="white"/>
<path d="M1.00641 15.0743C0.28571 15.3321 -0.124446 16.0762 0.0337571 16.8321C0.145085 17.3653 0.584538 17.8399 1.0943 17.9747C1.23493 18.0157 4.4986 18.0274 10.6509 18.0215L19.9849 18.004L20.2252 17.8751C20.5064 17.7227 20.8111 17.3946 20.94 17.1016C21.0572 16.8321 21.0572 16.1876 20.94 15.918C20.8111 15.6251 20.5064 15.2969 20.2252 15.1446L19.9849 15.0157L10.6099 15.004C2.66462 14.9922 1.19977 15.004 1.00641 15.0743Z" fill="white"/>
</svg>
